<?xml version="1.0" encoding="utf-8" ?><svg xmlns="http://www.w3.org/2000/svg" xmlns:xlink="http://www.w3.org/1999/xlink" width="1227" height="1227" viewBox="0 0 1227 1227"><path fill="#534736" transform="scale(1.0225 1.0225)" d="M763.528 643.225C781.926 642.383 797.531 656.598 798.405 674.994C799.278 693.39 785.091 709.019 766.697 709.925C748.257 710.832 732.581 696.603 731.705 678.162C730.829 659.721 745.086 644.069 763.528 643.225ZM769.205 707.272C776.229 704.596 780.963 700.441 783.83 693.427C791.395 674.915 787.418 644.296 761.42 646.441C750.272 648.68 745.198 658.64 743.722 668.947C741.115 687.156 747.244 708.016 769.205 707.272Z"/><path fill="#976A38" transform="scale(1.0225 1.0225)" d="M598.994 443.678C618.897 423.127 646.149 435.67 649.218 462.844C656.716 463.042 663.535 463.136 669.618 469.158C675.437 474.92 676.063 484.136 672.281 491.388C671.798 492.315 666.571 498.921 665.695 500.495C665.932 500.852 666.169 501.209 666.406 501.566C673.272 504.82 682.81 501.513 686.483 512.639C691.888 529.011 676.814 535.475 664.584 540.466C661.771 541.637 658.266 544.401 655.432 543.329L655.289 542.032C661.728 534.411 684.536 533.559 683.48 517.176C683.275 514.001 682.153 511.9 679.472 509.54C673.691 504.454 665.87 509.559 662.664 506.415C663.26 506.999 659.973 503.636 660.234 503.875C658.546 496.55 674.023 490.204 670.133 478.287C666.968 468.594 652.505 461.961 646.858 472.512C643.083 479.216 641.531 491.879 635.104 494.483L634.266 494.137C635.517 479.514 653.988 463.316 638.553 446.522C628.39 435.464 613.77 434.739 603.434 445.821C600.888 458.948 604.642 493.507 600.781 498.461C599.38 498.735 600.061 498.801 598.741 497.98C598.411 495.506 598.122 493.057 597.838 490.577C598.139 479.541 599.064 465.821 597.818 454.939C595.679 436.276 573.362 441.527 564.014 451.368C552.273 463.729 571.3 483.963 570.106 491.281L569.268 491.591C564.37 489.024 560.491 475.818 556.821 470.978C551.528 463.999 543.085 467.598 538.25 473.256C535.967 475.927 535.423 478.305 534.622 481.962C538.876 496.96 550.933 497.997 552.814 505.804L552.303 506.695C549.629 506.92 543.631 502.207 541.541 500.349C522.634 483.551 529.37 461.894 555.674 463.579C557.142 454.919 559.303 449.04 567.028 443.751C577.938 436.282 588.148 436.62 598.994 443.678Z"/><path fill="#534736" transform="scale(1.0225 1.0225)" d="M274.217 644.526C286.661 642.696 310.659 641.349 321.115 649.01C329.284 654.995 329.418 668.176 322.754 675.471C316.112 682.81 302.183 682.074 292.959 682.13C292.903 686.661 292.854 691.568 292.605 696.062C292.074 705.632 295.133 706.968 303.277 708.819C297.02 708.93 290.853 709.045 284.591 708.99C282.81 708.656 282.842 708.611 281.214 707.766C282.712 706.431 283.625 705.788 283.595 703.396C283.482 694.429 285.463 652.377 283.264 647.314C280.618 645.803 277.246 645.246 274.217 644.526ZM292.922 679.728C300.455 680.561 305.807 680.478 312.399 676.114C318.935 668.911 320.397 658.117 312.72 651.135C307.344 646.246 300.394 646.012 293.55 646.589C292.198 648.722 292.884 675.172 292.922 679.728Z"/><path fill="#534736" transform="scale(1.0225 1.0225)" d="M368.237 642.331C373.26 644.412 375.13 651.452 377.286 656.339C383.864 671.249 388.7 687.293 396.111 701.788C398.886 707.217 403.126 707.675 408.584 708.903L374.331 708.976C392.134 705.316 386.396 700.468 379.573 686.652L372.803 686.633C366.418 686.566 360.227 686.597 353.846 686.689C347.524 699 344.704 705.516 359.944 709.07C350.642 708.767 340.314 708.982 330.936 708.983C339.914 705.855 342.615 704.439 346.626 695.317C354.297 677.87 360.369 659.685 368.237 642.331ZM355.112 683.218L368.115 683.267C371.347 683.181 374.852 683.151 378.053 682.965C376.404 678.133 369.291 657.597 366.402 654.868C362.725 664.03 358.474 674.015 355.112 683.218Z"/><path fill="#534736" transform="scale(1.0225 1.0225)" d="M444.61 642.925C453.677 642.187 459.339 644.08 467.919 646.531C469.203 646.067 470.24 645.76 471.536 645.373C472.368 645.66 473.014 645.659 473.151 646.406C473.854 650.239 473.706 661.6 472.678 664.983L471.876 665.38C470.478 664.152 468.547 660.283 467.757 658.395C465.098 651.294 457.78 645.494 449.894 645.614C417.668 646.107 417.689 708.12 453.066 707.499C464.735 704.074 467.056 698.144 473.114 688.257C473.59 694.521 473.493 699.942 473.422 706.196C459.907 710.419 442.391 712.565 429.94 704.577C414.158 694.453 411.898 671.6 421.819 656.675C427.43 648.234 435.09 644.727 444.61 642.925Z"/><path fill="#534736" transform="scale(1.0225 1.0225)" d="M682.995 642.956C691.137 642.368 696.5 644.255 704.056 646.917L709.952 644.588C710.311 651.648 709.832 660.087 709.302 667.131C702.682 656.263 701.678 645.655 685.382 646.002C665.452 646.074 660.107 670.434 663.921 686.152C667.876 702.446 677.04 708.243 693.014 707.011C703.929 702.158 705.507 696.676 709.942 686.38C710.262 692.535 710.167 700.032 710.226 706.284C694.888 709.088 680.195 714.109 665.982 704.235C650.807 693.693 648.759 669.715 659.38 655.336C665.302 647.32 673.561 644.161 682.995 642.956Z"/><path fill="#534736" transform="scale(1.0225 1.0225)" d="M547.508 643.679C554.882 643.117 578.89 643.146 586.516 644.032C586.316 648.079 586.382 652.894 585.193 656.62L584.364 656.992C582.665 655.345 582.276 652.758 581.616 650.397C572.309 645.191 563.448 645.928 553.156 646.781C552.9 655.926 553.095 665.845 553.107 675.048C569.966 675.536 569.58 677.344 575.536 661.27C576.127 666.879 576.462 685.242 575.185 690.435L574.827 689.909C569.476 675.037 568.235 677.964 553.073 678.557C553.099 684.717 552.798 690.857 552.658 697.012C552.435 706.79 558.375 707.515 566.143 708.861C557.064 709.431 543.122 710.245 534.501 708.432C537.21 707.761 540.137 707.204 542.884 706.627C545.446 695.054 544.32 659.382 543.542 646.511C540.86 646.245 540.39 646.324 538.035 645.179L538.064 644.432C541.43 643.506 544.028 643.695 547.508 643.679Z"/><path fill="#534736" transform="scale(1.0225 1.0225)" d="M832.937 642.297C844.088 641.71 849.023 641.565 855.419 651.633C856.087 662.194 853.654 665.929 844.962 671.905C849.984 674.095 854.171 675.898 857.147 680.685C863.252 690.752 856.851 701.787 847.434 707.041C839.532 711.449 822.403 713.533 817.24 703.793C816.451 702.304 816.193 699.409 817.095 697.942C818.033 696.416 818.457 696.575 819.989 696.347C822.45 697.309 824.425 700.813 826.248 703.179C842.89 717.776 858.094 693.139 845.833 680.605C840.883 675.545 831.327 676.97 824.599 677.116C834.971 671.042 843.785 672.984 847.564 659.34C844.665 647.801 837.021 643.671 826.389 649.836C825.334 651.864 824.649 654.424 822.175 654.051L821.581 652.643C822.422 645.961 827.294 644.111 832.937 642.297Z"/><path fill="#534736" transform="scale(1.0225 1.0225)" d="M536.787 539.45C553.817 538.881 568.991 538.486 585.93 540.586C588.969 542.105 591.016 542.708 594.403 542.573C597.296 542.865 599.241 543.417 602.038 544.114C603.436 544.488 604.099 544.83 605.492 544.725C612.669 546.296 631.654 551.965 638.048 551.336C638.709 551.567 640.511 552.259 641.093 552.318C652.264 553.989 662.678 555.474 673.912 556.734C689.817 558.518 707.632 559.08 723.266 561.142L723.022 563.21C712.719 562.509 702.478 562.735 692.241 562.167C652.276 559.948 613.877 551.545 574.563 545.241C558.116 542.603 537.35 543.711 520.441 543.79C522.815 542.866 524.865 542.054 527.169 540.973C530.05 541.355 534.096 540.416 536.787 539.45Z"/><path fill="#534736" transform="scale(1.0225 1.0225)" d="M882.625 641.601C896.878 642.219 910.048 641.99 924.111 642.419C915.105 661.333 904.225 688.14 902.023 708.961C899.364 708.972 895.417 709.583 893.531 708.433C892.465 706.275 892.898 706.399 893.103 703.58C896.052 687.639 909.39 664.133 917.385 649.558C911.023 649.633 890.375 649.167 885.406 649.98C883.383 652.072 882.643 655.28 880.936 658.149C880.623 654.615 881.915 645.167 882.625 641.601Z"/><defs><linearGradient id="gradient_0" gradientUnits="userSpaceOnUse" x1="558.64783" y1="557.8371" x2="557.41223" y2="570.36768"><stop offset="0" stop-color="#A2692E"/><stop offset="1" stop-color="#755B49"/></linearGradient></defs><path fill="url(#gradient_0)" transform="scale(1.0225 1.0225)" d="M472.215 560.784C488.927 558.734 504.264 557.794 521.102 557.336C536.288 556.924 551.074 555.331 566.287 557.938C587.194 561.27 607.875 565.895 628.878 568.527C633.868 569.152 642.534 570.678 647.208 570.757C646.442 571.217 645.208 571.903 644.526 572.402C617.717 573.255 588.014 564.892 561.225 562.623C531.614 560.116 501.237 563.337 471.896 562.599L472.215 560.784Z"/><path fill="#534736" transform="scale(1.0225 1.0225)" d="M501.294 642.983C504.634 642.721 518.352 642.16 519.902 644.768C518.516 646.476 515.821 646.91 513.593 647.571C512.117 655.464 511.348 698.142 514.154 705.327C516.477 707.581 519.513 708.034 522.782 709.058C519.88 709.262 516.926 709.29 514.014 709.358C505.762 709.508 498.282 709.208 490.023 708.862C494.244 708.073 497.978 707.41 502.111 706.257C505.191 695.746 503.469 660.636 503.262 647.73C501.115 647.141 496.795 646.352 496.082 644.274C497.584 643.022 499.26 643.165 501.294 642.983Z"/><defs><linearGradient id="gradient_1" gradientUnits="userSpaceOnUse" x1="605.78284" y1="674.12823" x2="630.74127" y2="677.21857"><stop offset="0" stop-color="#5E4C30"/><stop offset="1" stop-color="#4E453D"/></linearGradient></defs><path fill="url(#gradient_1)" transform="scale(1.0225 1.0225)" d="M610.705 643.593C615.619 643.398 628.342 642.319 631.922 644.701L631.679 645.286C629.284 645.7 625.919 646.033 624.596 648.378C623.064 651.096 622.678 699.639 624.052 703.187C624.99 705.608 626.761 706.538 629.046 707.352C630.17 707.752 630.647 707.887 631.611 708.634L630.59 709.224C622.394 708.732 613.413 709.095 604.895 708.714C607.587 707.57 610.945 706.886 613.828 706.176C614.773 699.578 614.535 689.552 614.532 682.646L614.621 648.768C612.178 647.113 610.472 646.875 608.152 644.772L608.396 644.064L610.705 643.593Z"/><path fill="#976A38" transform="scale(1.0225 1.0225)" d="M571.302 582.11C579.39 581.793 591.306 582.546 599.598 582.601C608.768 582.662 632.618 582.688 640.793 584.919C609.06 586.93 576.068 586.443 544.194 586.392L505.855 586.153C495.956 586.083 482.39 586.451 472.983 584.493C502.408 582.384 531.755 583.394 561.228 582.306C564.566 582.183 567.956 582.174 571.302 582.11Z"/><path fill="#976A38" transform="scale(1.0225 1.0225)" d="M608.273 504.02C616.663 506.777 617.554 507.229 622.234 514.609C629.187 513.789 634.255 513.377 639.94 518.328C650.631 527.64 650.336 542.424 641.093 552.318C640.511 552.259 638.709 551.567 638.048 551.336C641.583 544.969 645.672 538.93 643.037 531.448C639.336 520.938 630.945 515.389 620.506 520.64C616.424 513.817 615.285 511.192 607.602 508.788C598.438 511.013 585.863 523.135 580.943 520.837C579.853 519.286 579.945 520.062 580.124 518.535C582.531 517.335 585.578 516.411 587.652 515.176C596.787 509.74 597.908 506.832 608.273 504.02Z"/><path fill="#976A38" transform="scale(1.0225 1.0225)" d="M527.169 540.973C527.527 540.014 527.312 540.498 527.961 539.331L528.492 538.39C528.041 536.154 509.666 531.508 513.506 514.17C517.112 497.885 539.158 499.548 543.977 508.318C541.957 510.772 527.279 502.942 522.634 507.171C504.435 523.738 532.622 532.653 536.787 539.45C534.096 540.416 530.05 541.355 527.169 540.973Z"/><path fill="#976A38" transform="scale(1.0225 1.0225)" d="M559.671 506.302C573.506 517.272 584.562 527.803 594.403 542.573C591.016 542.708 588.969 542.105 585.93 540.586C586.255 539.383 586.648 538.954 585.774 537.753C579.413 529.007 568.103 519.059 560.117 511.92C558.444 513.452 557.214 514.919 555.043 515.435L553.949 514.972C553.514 511.02 556.879 508.502 559.671 506.302Z"/><path fill="#976A38" transform="scale(1.0225 1.0225)" d="M613.398 487.004C632.594 486.341 632.944 503.048 628.548 503.646C626.982 502.55 626.939 501.469 626.373 499.565L626.149 498.789C622.518 487.778 617.246 491.005 607.667 493.334L607.203 492.774C608.975 489.048 609.645 488.974 613.398 487.004Z"/><path fill="#976A38" transform="scale(1.0225 1.0225)" d="M589.652 498.766C588.976 495.389 589.14 493.349 585.951 491.638C582.242 491.852 580.542 492.028 577.201 490.447L577.189 489.463C584.028 482.794 589.777 487.505 593.225 494.503C594.101 500.768 593.896 503.744 588.299 507.379L586.565 507.319C586.687 506.198 588.769 501.884 589.45 499.491L589.652 498.766Z"/><path fill="#534736" transform="scale(1.0225 1.0225)" d="M516.088 620.115C518.605 619.769 521.587 619.367 523.62 621.192L523.584 622.545C521.047 626.301 513.807 629.237 509.523 631.373L502.712 635.33C505.982 629.474 510.444 623.828 516.088 620.115Z"/><path fill="#976A38" transform="scale(1.0225 1.0225)" d="M643.829 502.219C650.535 501.198 660.304 505.623 657.186 512.873L656.069 513.155C653.984 511.981 653.284 510.11 652.063 507.949L651.01 506.745C646.393 504.738 643.581 508.725 637.741 509.657L637.52 508.901C639.436 505.324 640.429 504.464 643.829 502.219Z"/><path fill="#976A38" transform="scale(1.0225 1.0225)" d="M602.038 544.114C603.425 535.638 604.738 530.482 608.977 523.094L610.331 523.628L610.294 521.884C611.649 525.93 606.529 539.734 605.492 544.725C604.099 544.83 603.436 544.488 602.038 544.114Z"/><path fill="#FEFBFE" fill-opacity="0.019607844" transform="scale(1.0225 1.0225)" d="M597.838 490.577C598.122 493.057 598.411 495.506 598.741 497.98C596.52 500.106 596.414 499.818 594.819 502.561L595.157 503.382L597.653 503.909L597.577 504.393C593.947 505.834 594.372 505.258 593.518 509.295C590.343 510.453 590.602 508.353 588.299 507.379C593.896 503.744 594.101 500.768 593.225 494.503C593.234 491.935 592.77 492.857 593.933 491.2C596.222 491.675 596.068 492.08 597.838 490.577Z"/><path fill="#976A38" transform="scale(1.0225 1.0225)" d="M574.111 497.933C578.57 502.449 579.394 504.026 581.784 509.928C574.35 509.15 573.183 504.584 574.111 497.933Z"/><path fill="#201B1B" transform="scale(1.0225 1.0225)" d="M723.266 561.142C726.64 561.263 746.812 561.936 748.94 562.817C743.472 563.407 728.197 563.946 723.022 563.21L723.266 561.142Z"/><path fill="#534736" transform="scale(1.0225 1.0225)" d="M647.208 570.757C653.222 571.148 658.673 571.473 664.662 572.312C657.163 572.811 652.046 572.745 644.526 572.402C645.208 571.903 646.442 571.217 647.208 570.757Z"/><path fill="#31302F" fill-opacity="0.86666667" transform="scale(1.0225 1.0225)" d="M467.622 562.572C464.699 563.114 455.209 563.35 452.318 562.676C455.587 561.736 459.116 561.697 462.526 561.505L462.887 562.248L467.622 562.572Z"/><path fill="#201B1B" fill-opacity="0.98431373" transform="scale(1.0225 1.0225)" d="M462.526 561.505C465.939 561.156 468.783 560.924 472.215 560.784L471.896 562.599L467.622 562.572L462.887 562.248L462.526 561.505Z"/><path fill="#31302F" fill-opacity="0.9137255" transform="scale(1.0225 1.0225)" d="M281.214 707.766C282.842 708.611 282.81 708.656 284.591 708.99C281.56 709.071 279.335 709.315 276.542 708.256C278.171 707.631 279.466 707.774 281.214 707.766Z"/></svg>