<?xml version="1.0" encoding="utf-8" ?><svg xmlns="http://www.w3.org/2000/svg" xmlns:xlink="http://www.w3.org/1999/xlink" width="2573" height="1327" viewBox="0 0 2573 1327"><path fill="#A86E3C" transform="scale(5.99767 6.00452)" d="M219.59 24.8409C229.124 17.4519 235.449 12.4865 248.169 12.4558C271.312 12.3999 278.457 30.7748 284.172 49.3275C302.924 51.5151 322.547 58.2604 314.173 81.0726C311.63 88.0021 309.618 93.0087 305.001 99.026C307.474 99.2385 309.626 99.8771 312.001 100.365C322.415 102.504 334.751 107.558 333.52 120.391C332.781 128.097 326.825 134.921 321.09 139.728C313.909 145.536 303.216 152.131 293.722 151.798C293.051 151.774 293.013 151.717 292.55 151.374C292.412 149.198 297.35 146.503 299.034 145.532C310.242 139.067 328.373 134.914 327.265 118.551C327.019 114.914 325.449 111.487 322.014 109.816C314.713 106.264 306.976 107.246 299.544 103.838C298.636 94.56 304.781 87.5417 308.707 79.5498C310.164 76.5842 311.067 74.5725 312.258 71.4644C307.022 65.6161 303.395 55.921 294.239 55.3202C287.754 54.8947 283.259 61.9479 280.151 66.2524C277.305 70.1944 269.351 87.8338 266.167 89.5881C266.639 89.8205 263.828 88.9172 264.118 88.9863C269.879 74.6439 280.954 50.4364 274.278 35.1022C265.068 13.9445 225.635 10.1937 224.375 39.1514C223.71 49.0538 227.21 89.1627 220.498 93.6426C218.196 93.8146 218.284 88.3992 218.152 86.6212L216.303 85.3469C218.012 76.397 218.368 67.7544 218.128 58.4911C217.827 47.7692 220.191 29.0911 207.163 24.9565C190.788 19.76 165.547 35.4068 171.158 54.3117C173.167 61.0816 177.031 67.6336 179.393 74.3301C180.1 76.3351 183.065 83.9098 181.082 85.4262C179.898 85.2879 178.752 83.82 178.005 82.9197C171.69 75.3042 167.87 57.2458 156.801 55.4182C147.169 53.8277 140.242 65.9961 137.103 73.4118C139.058 77.5596 142.102 82.4573 144.97 86.0398C149.353 91.5132 158.097 97.946 159.82 104.744C141.651 103.346 121.697 71.647 138.77 57.3217C145.695 51.5115 155.476 50.3356 164.17 49.6958C165.739 40.6587 172.533 28.7982 180.141 23.6529C186.948 19.049 194.565 17.5369 202.637 19.0195C207.389 19.8924 215.427 22.4616 219.59 24.8409Z"/><path fill="#5D4A44" transform="scale(5.99767 6.00452)" d="M141.792 147.48C157.052 146.585 173.151 147.341 188.479 147.43C192.214 147.451 195.875 148.231 199.518 148.448C201.74 150.294 212.297 152.981 214.962 151.719C217.813 152.322 221.408 152.788 224.003 153.911C225.513 154.696 227.765 154.632 229.426 154.382C237.318 155.881 245.921 158.993 254.031 160.49C256.628 160.97 267.83 162.611 269.432 163.433C271.084 164.331 271.928 164.5 273.743 164.6C278.17 164.275 287.359 165.965 291.912 166.559C299.068 167.491 306.179 168.253 313.345 169.076C329.156 170.891 345.019 171.448 360.855 173.057C366.147 173.595 371.485 174.568 376.759 175.237C376.976 176.158 377.105 176.593 377.1 177.535L357.679 176.672C354.528 176.563 351.36 176.534 348.212 176.466C293.037 175.271 239.301 162.416 184.923 154.633C173.423 152.987 160.374 153.373 148.715 153.036C139.635 152.773 129.679 152.524 120.649 153.018C122.146 152.125 127.83 149.387 129.362 148.889L129.794 149.4C132.195 150.445 140.251 149.14 141.792 147.48Z"/><path fill="#A86E3C" transform="scale(5.99767 6.00452)" d="M56.9709 174.683C60.4554 174.38 64.0312 174.011 67.497 173.52C79.2459 171.855 90.9863 171.792 102.804 171.309L125.799 170.171C138.362 169.665 151.903 168.728 164.423 169.783C174.089 170.598 185.708 171.716 195.263 173.305C210.409 175.825 225.549 179.753 240.746 182.115C248.602 183.508 257.771 181.927 265.343 183.368C271.389 184.519 274.588 186.685 281.32 187.667C281.512 188.549 281.586 188.731 281.311 189.584C278.106 189.512 274.171 189.719 270.821 189.708C261.536 189.681 253.099 189.403 243.866 188.221C224.239 185.708 203.522 180.212 183.892 178.61C157.915 176.489 130.562 176.387 104.506 176.752C88.8215 176.973 72.5753 176.55 57.03 177.076L56.9709 174.683Z"/><path fill="#A86E3C" transform="scale(5.99767 6.00452)" d="M219.142 201.118C236.948 201.073 252.806 203.398 270.445 204.296C270.941 204.321 272.157 204.387 272.459 204.725C270.635 205.168 268.216 205.279 266.299 205.471C243.417 207.766 220.043 207.774 197.096 207.66L114.625 207.486C103.201 207.522 91.4722 207.709 80.0951 207.215C77.5853 207.107 62.3614 205.535 60.8577 204.794C62.1051 203.715 86.8412 203.99 90.0749 203.993C133.068 204.034 176.181 201.719 219.142 201.118Z"/><path fill="#A86E3C" transform="scale(5.99767 6.00452)" d="M230.987 102.296C240.747 104.706 243.728 107.916 250.119 115.512C267.631 115.565 281.419 120.654 281.553 140.463C281.599 147.141 277.869 159.148 273.743 164.6C271.928 164.5 271.084 164.331 269.432 163.433C270.509 159.932 272.375 155.92 273.666 152.439C277.056 143.298 276.719 133.273 269.106 126.321C264.013 121.67 252.666 121.724 246.467 123.553C242.406 115.989 238.781 111.942 230.973 108.072C224.127 111.355 206.025 122.711 198.922 122.637L198.313 122.322C197 117.806 226.587 103.799 230.987 102.296Z"/><path fill="#A86E3C" transform="scale(5.99767 6.00452)" d="M129.362 148.889C128.814 145.761 117.713 137.539 114.959 134.767C110.956 130.888 108.724 125.225 108.831 119.634C108.888 104.109 126.459 98.3985 139.398 99.2255C142.952 99.4527 145.709 98.8568 146.948 103.019C147.715 105.596 149 107.547 150.869 109.46C143.085 106.945 131.664 104.051 123.647 106.364C117.304 108.193 112.911 116.33 115.299 122.67C118.58 131.386 126.788 137.63 134.249 142.752C136.618 144.378 139.211 146.201 141.792 147.48C140.251 149.14 132.195 150.445 129.794 149.4L129.362 148.889Z"/><path fill="#A86E3C" transform="scale(5.99767 6.00452)" d="M164.16 108.751C163.57 108.036 162.936 107.403 162.767 106.497C163.573 104.492 168.341 105.554 169.904 106.368C183.816 113.611 194.107 127.608 204.191 139.33C207.387 143.076 211.611 149.038 214.962 151.719C212.297 152.981 201.74 150.294 199.518 148.448C200.083 147.837 200.679 147.167 201.27 146.59C193.99 136.173 186.151 127.086 176.675 118.553C174.698 116.772 172.597 115.042 170.659 113.253C164.572 116.961 161.372 116.429 164.16 108.751Z"/><path fill="#A86E3C" transform="scale(5.99767 6.00452)" d="M198.462 79.5234C204.121 79.3724 210.116 84.6776 212.682 89.2809C212.772 91.9027 212.782 98.8413 212.443 101.243C210.295 104.206 206.7 106.308 203.401 107.763C203.695 104.246 208.522 94.1544 206.584 91.2731C204.681 88.4422 194.902 87.0168 192.831 83.3408C192.689 81.1485 196.662 80.06 198.462 79.5234Z"/><path fill="#A86E3C" transform="scale(5.99767 6.00452)" d="M237.719 80.51C240.372 80.4659 242.792 80.9081 245.628 81.4489C252.662 82.7901 261.581 89.3504 260.314 97.3957C260.115 98.6608 258.945 100.687 257.345 100.137C255.872 99.6309 255.263 98.0269 254.605 96.7271C252.791 93.4836 250.799 89.7693 247.43 87.9131C242.473 85.1814 233.681 86.4819 228.473 87.9164C230.486 85.6224 235.032 81.8232 237.719 80.51Z"/><path fill="#A86E3C" transform="scale(5.99767 6.00452)" d="M235.927 120.809C235.02 131.03 231.31 142.057 229.193 152.119C228.991 153.079 228.984 153.547 229.426 154.382C227.765 154.632 225.513 154.696 224.003 153.911C223.661 142.954 230.794 130.041 235.927 120.809Z"/><path fill="#A86E3C" transform="scale(5.99767 6.00452)" d="M278.337 99.575C283.147 99.8969 285.734 100.408 289.803 102.881C294.839 105.942 295.114 116.382 288.851 110.444C283.109 104.809 278.349 107.096 270.822 105.874C272.298 102.876 274.9 100.074 278.337 99.575Z"/><path fill="#A86E3C" transform="scale(5.99767 6.00452)" d="M187.313 94.3638C187.897 94.5783 188.865 95.5211 189.325 95.9789C193.358 99.9958 196.465 105.066 197.836 110.58C197.083 110.502 196.226 110.126 195.506 109.874C187.441 107.041 186.873 101.839 187.313 94.3638Z"/><path fill="#010000" transform="scale(5.99767 6.00452)" d="M376.759 175.237C380.976 175.371 385.245 175.711 389.456 175.991C396.085 176.432 402.637 176.74 409.245 177.494C403.994 178.793 382.439 178.66 377.1 177.535C377.105 176.593 376.976 176.158 376.759 175.237Z"/><path fill="#010000" transform="scale(5.99767 6.00452)" d="M57.03 177.076C55.5582 177.463 40.0963 177.849 38.5975 177.437C39.633 176.252 54.3629 175.027 56.9709 174.683L57.03 177.076Z"/><path fill="#5D4A44" transform="scale(5.99767 6.00452)" d="M281.32 187.667C284.113 187.748 290.261 188.409 293.146 188.876C290.787 189.488 283.663 189.869 281.311 189.584C281.586 188.731 281.512 188.549 281.32 187.667Z"/><path fill="#CC6F31" transform="scale(5.99767 6.00452)" d="M264.118 88.9863C263.828 88.9172 266.639 89.8205 266.167 89.5881C265.073 91.292 262.329 94.4914 260.851 95.831C262.124 93.4825 263.096 91.4444 264.118 88.9863Z"/></svg>